# xmcd
#
# Track frame offsets:
#	150
#	2710
#	16339
#	36061
#	50422
#	51636
#	69570
#	80893
#	96825
#	97998
#	118818
#	131213
#	143948
#	154950
#	182126
#
# Disc length: 2507 seconds
#
# Revision: 0
# Processed by: cddbd v1.5PL3 Copyright (c) Steve Scherf et al.
# Submitted via: EasyCDDAExtractor 4.6.0.1
#
DISCID=d809c90f
DTITLE=Dale Watson - Preachin' To The Choir [CD2]
DYEAR=2001
DGENRE=Country
TTITLE0=Yee-hah
TTITLE1=Turn Off The Jukebox
TTITLE2=You Think You'd Know Better
TTITLE3=No Fussin', No Cussin'
TTITLE4=Mandatory Merle Song
TTITLE5=Mama's Hungry Eyes
TTITLE6=Another Day, Another Dollar
TTITLE7=Heart Of Stone
TTITLE8=Preachin' To The Choir
TTITLE9=Country My Ass
TTITLE10=Return To Sender
TTITLE11=You Are My Friends
TTITLE12=Viva Las Vegas
TTITLE13=Call It A Night - Country My Ass (Reprise)
TTITLE14=Data Track
EXTD=
EXTT0=
EXTT1=
EXTT2=
EXTT3=
EXTT4=
EXTT5=
EXTT6=
EXTT7=
EXTT8=
EXTT9=
EXTT10=
EXTT11=
EXTT12=
EXTT13=
EXTT14=
PLAYORDER=
